<?xml version="1.0" encoding="iso-8859-1"?>
<!-- Generator: Adobe Illustrator 16.0.0, SVG Export Plug-In . SVG Version: 6.00 Build 0)  -->
<!DOCTYPE svg PUBLIC "-//W3C//DTD SVG 1.1//EN" "http://www.w3.org/Graphics/SVG/1.1/DTD/svg11.dtd">
<svg version="1.1" id="Capa_1" xmlns="http://www.w3.org/2000/svg" xmlns:xlink="http://www.w3.org/1999/xlink" x="0px" y="0px"
	 width="103.212px" height="103.212px" viewBox="0 0 103.212 103.212" style="enable-background:new 0 0 103.212 103.212;"
	 xml:space="preserve">
<g>
	<path d="M50.788,89.205c0,1.542-1.255,2.802-2.801,2.802c-13.128,0-23.813-10.677-23.813-23.815c0-1.548,1.256-2.802,2.802-2.802
		c1.545,0,2.801,1.254,2.801,2.802c0,10.042,8.169,18.212,18.211,18.212C49.533,86.403,50.788,87.656,50.788,89.205z M59.817,58.019
		h-2.506l8.186-23.144h2.802H71.1l8.188,23.144h-2.563h-2.561l-1.563-4.706h-8.778l-1.521,4.706H59.817z M65.158,49.319h6.15
		l-3.075-9.294L65.158,49.319z M82.537,63.89c0.285,1.532,0.473,3.01,0.473,4.301c0,19.311-15.717,35.021-35.022,35.021
		c-19.308,0-35.021-15.711-35.021-35.021c0-18.445,31.369-64.974,32.702-66.941c0.374-0.566,0.945-0.971,1.599-1.138
		c1.837-0.449,3.068-0.764,17.848,24.867c0.892-0.112,1.791-0.273,2.72-0.273c12.355,0,22.413,10.052,22.413,22.413
		C90.247,53.822,87.215,59.787,82.537,63.89z M67.833,30.304c-9.264,0-16.808,7.541-16.808,16.81c0,9.264,7.544,16.81,16.808,16.81
		c9.265,0,16.81-7.552,16.81-16.81C84.643,37.838,77.098,30.304,67.833,30.304z M77.307,67.354
		c-2.895,1.357-6.073,2.184-9.468,2.184c-12.367,0-22.412-10.057-22.412-22.413c0-9.392,5.81-17.411,14.007-20.745
		c-4.595-7.849-8.918-14.613-11.447-18.483c-9.962,15.195-29.412,47.507-29.412,60.306c0,16.219,13.195,29.417,29.417,29.417
		c16.225,0,29.418-13.198,29.418-29.417C77.406,67.951,77.317,67.601,77.307,67.354z"/>
</g>
<g>
</g>
<g>
</g>
<g>
</g>
<g>
</g>
<g>
</g>
<g>
</g>
<g>
</g>
<g>
</g>
<g>
</g>
<g>
</g>
<g>
</g>
<g>
</g>
<g>
</g>
<g>
</g>
<g>
</g>
</svg>
